HIERARCHY
ROOT Hips
{
  OFFSET 0.000000 95.000000 0.000000
  CHANNELS 6 Xposition Yposition Zposition Zrotation Xrotation Yrotation
  JOINT Spine
  {
    OFFSET 0.000000 10.000000 0.000000
    CHANNELS 3 Zrotation Xrotation Yrotation
    JOINT Spine1
    {
      OFFSET 0.000000 12.000000 0.000000
      CHANNELS 3 Zrotation Xrotation Yrotation
      JOINT Spine2
      {
        OFFSET 0.000000 12.000000 0.000000
        CHANNELS 3 Zrotation Xrotation Yrotation
        JOINT Neck
        {
          OFFSET 0.000000 10.000000 0.000000
          CHANNELS 3 Zrotation Xrotation Yrotation
          JOINT Head
          {
            OFFSET 0.000000 8.000000 0.000000
            CHANNELS 3 Zrotation Xrotation Yrotation
            End Site
            {
              OFFSET 0.000000 10.000000 0.000000
            }
          }
        }
        JOINT LeftShoulder
        {
          OFFSET 6.000000 8.000000 0.000000
          CHANNELS 3 Zrotation Xrotation Yrotation
          JOINT LeftArm
          {
            OFFSET 12.000000 0.000000 0.000000
            CHANNELS 3 Zrotation Xrotation Yrotation
            JOINT LeftForeArm
            {
              OFFSET 24.000000 0.000000 0.000000
              CHANNELS 3 Zrotation Xrotation Yrotation
              JOINT LeftHand
              {
                OFFSET 22.000000 0.000000 0.000000
                CHANNELS 3 Zrotation Xrotation Yrotation
                JOINT LeftHandThumb1
                {
                  OFFSET 1.800000 -1.400000 0.500000
                  CHANNELS 3 Zrotation Xrotation Yrotation
                  JOINT LeftHandThumb2
                  {
                    OFFSET 2.400000 0.000000 0.000000
                    CHANNELS 3 Zrotation Xrotation Yrotation
                    JOINT LeftHandThumb3
                    {
                      OFFSET 1.900000 0.000000 0.000000
                      CHANNELS 3 Zrotation Xrotation Yrotation
                      End Site
                      {
                        OFFSET 1.600000 0.000000 0.000000
                      }
                    }
                  }
                }
                JOINT LeftHandIndex1
                {
                  OFFSET 6.600000 1.200000 0.300000
                  CHANNELS 3 Zrotation Xrotation Yrotation
                  JOINT LeftHandIndex2
                  {
                    OFFSET 2.000000 0.000000 0.000000
                    CHANNELS 3 Zrotation Xrotation Yrotation
                    JOINT LeftHandIndex3
                    {
                      OFFSET 1.200000 0.000000 0.000000
                      CHANNELS 3 Zrotation Xrotation Yrotation
                      End Site
                      {
                        OFFSET 1.000000 0.000000 0.000000
                      }
                    }
                  }
                }
                JOINT LeftHandMiddle1
                {
                  OFFSET 7.200000 0.000000 0.300000
                  CHANNELS 3 Zrotation Xrotation Yrotation
                  JOINT LeftHandMiddle2
                  {
                    OFFSET 3.000000 0.000000 0.000000
                    CHANNELS 3 Zrotation Xrotation Yrotation
                    JOINT LeftHandMiddle3
                    {
                      OFFSET 2.000000 0.000000 0.000000
                      CHANNELS 3 Zrotation Xrotation Yrotation
                      End Site
                      {
                        OFFSET 1.600000 0.000000 0.000000
                      }
                    }
                  }
                }
                JOINT LeftHandRing1
                {
                  OFFSET 7.100000 -1.000000 0.400000
                  CHANNELS 3 Zrotation Xrotation Yrotation
                  JOINT LeftHandRing2
                  {
                    OFFSET 2.600000 0.000000 0.000000
                    CHANNELS 3 Zrotation Xrotation Yrotation
                    JOINT LeftHandRing3
                    {
                      OFFSET 1.600000 0.000000 0.000000
                      CHANNELS 3 Zrotation Xrotation Yrotation
                      End Site
                      {
                        OFFSET 1.300000 0.000000 0.000000
                      }
                    }
                  }
                }
                JOINT LeftHandPinky1
                {
                  OFFSET 6.500000 -2.000000 0.500000
                  CHANNELS 3 Zrotation Xrotation Yrotation
                  JOINT LeftHandPinky2
                  {
                    OFFSET 1.900000 0.000000 0.000000
                    CHANNELS 3 Zrotation Xrotation Yrotation
                    JOINT LeftHandPinky3
                    {
                      OFFSET 1.400000 0.000000 0.000000
                      CHANNELS 3 Zrotation Xrotation Yrotation
                      End Site
                      {
                        OFFSET 1.300000 0.000000 0.000000
                      }
                    }
                  }
                }
              }
            }
          }
        }
        JOINT RightShoulder
        {
          OFFSET -6.000000 8.000000 0.000000
          CHANNELS 3 Zrotation Xrotation Yrotation
          JOINT RightArm
          {
            OFFSET -12.000000 0.000000 0.000000
            CHANNELS 3 Zrotation Xrotation Yrotation
            JOINT RightForeArm
            {
              OFFSET -24.000000 0.000000 0.000000
              CHANNELS 3 Zrotation Xrotation Yrotation
              JOINT RightHand
              {
                OFFSET -22.000000 0.000000 0.000000
                CHANNELS 3 Zrotation Xrotation Yrotation
                JOINT RightHandThumb1
                {
                  OFFSET -1.800000 -1.400000 0.500000
                  CHANNELS 3 Zrotation Xrotation Yrotation
                  JOINT RightHandThumb2
                  {
                    OFFSET -2.400000 0.000000 0.000000
                    CHANNELS 3 Zrotation Xrotation Yrotation
                    JOINT RightHandThumb3
                    {
                      OFFSET -1.900000 0.000000 0.000000
                      CHANNELS 3 Zrotation Xrotation Yrotation
                      End Site
                      {
                        OFFSET -1.600000 0.000000 0.000000
                      }
                    }
                  }
                }
                JOINT RightHandIndex1
                {
                  OFFSET -6.600000 1.200000 0.300000
                  CHANNELS 3 Zrotation Xrotation Yrotation
                  JOINT RightHandIndex2
                  {
                    OFFSET -2.000000 0.000000 0.000000
                    CHANNELS 3 Zrotation Xrotation Yrotation
                    JOINT RightHandIndex3
                    {
                      OFFSET -1.200000 0.000000 0.000000
                      CHANNELS 3 Zrotation Xrotation Yrotation
                      End Site
                      {
                        OFFSET -1.000000 0.000000 0.000000
                      }
                    }
                  }
                }
                JOINT RightHandMiddle1
                {
                  OFFSET -7.200000 0.000000 0.300000
                  CHANNELS 3 Zrotation Xrotation Yrotation
                  JOINT RightHandMiddle2
                  {
                    OFFSET -3.000000 0.000000 0.000000
                    CHANNELS 3 Zrotation Xrotation Yrotation
                    JOINT RightHandMiddle3
                    {
                      OFFSET -2.000000 0.000000 0.000000
                      CHANNELS 3 Zrotation Xrotation Yrotation
                      End Site
                      {
                        OFFSET -1.600000 0.000000 0.000000
                      }
                    }
                  }
                }
                JOINT RightHandRing1
                {
                  OFFSET -7.100000 -1.000000 0.400000
                  CHANNELS 3 Zrotation Xrotation Yrotation
                  JOINT RightHandRing2
                  {
                    OFFSET -2.600000 0.000000 0.000000
                    CHANNELS 3 Zrotation Xrotation Yrotation
                    JOINT RightHandRing3
                    {
                      OFFSET -1.600000 0.000000 0.000000
                      CHANNELS 3 Zrotation Xrotation Yrotation
                      End Site
                      {
                        OFFSET -1.300000 0.000000 0.000000
                      }
                    }
                  }
                }
                JOINT RightHandPinky1
                {
                  OFFSET -6.500000 -2.000000 0.500000
                  CHANNELS 3 Zrotation Xrotation Yrotation
                  JOINT RightHandPinky2
                  {
                    OFFSET -1.900000 0.000000 0.000000
                    CHANNELS 3 Zrotation Xrotation Yrotation
                    JOINT RightHandPinky3
                    {
                      OFFSET -1.400000 0.000000 0.000000
                      CHANNELS 3 Zrotation Xrotation Yrotation
                      End Site
                      {
                        OFFSET -1.300000 0.000000 0.000000
                      }
                    }
                  }
                }
              }
            }
          }
        }
      }
    }
  }
  JOINT LeftUpLeg
  {
    OFFSET 10.000000 -5.000000 0.000000
    CHANNELS 3 Zrotation Xrotation Yrotation
    JOINT LeftLeg
    {
      OFFSET 0.000000 -42.000000 0.000000
      CHANNELS 3 Zrotation Xrotation Yrotation
      JOINT LeftFoot
      {
        OFFSET 0.000000 -42.000000 4.000000
        CHANNELS 3 Zrotation Xrotation Yrotation
        End Site
        {
          OFFSET 0.000000 0.000000 12.000000
        }
      }
    }
  }
  JOINT RightUpLeg
  {
    OFFSET -10.000000 -5.000000 0.000000
    CHANNELS 3 Zrotation Xrotation Yrotation
    JOINT RightLeg
    {
      OFFSET 0.000000 -42.000000 0.000000
      CHANNELS 3 Zrotation Xrotation Yrotation
      JOINT RightFoot
      {
        OFFSET 0.000000 -42.000000 4.000000
        CHANNELS 3 Zrotation Xrotation Yrotation
        End Site
        {
          OFFSET 0.000000 0.000000 12.000000
        }
      }
    }
  }
}
MOTION
Frames: 5
Frame Time: 0.033333
0.0000 95.0000 0.0000 0.0000 0.0000 0.0000 0.0000 0.0000 0.0000 0.0000 0.0000 0.0000 0.0000 0.0000 0.0000 0.0000 0.0000 0.0000 0.0000 0.0000 0.0000 0.0000 0.0000 0.0000 -82.8840 9.8568 11.1561 -6.0388 6.0280 -6.2863 -173.3408 17.5778 177.1175 49.3841 -9.5520 5.5498 11.4350 0.0000 0.0000 4.1340 0.0000 0.0000 -1.8668 0.1318 -0.2858 7.9791 0.0000 0.0000 1.3113 0.0000 0.0000 12.2349 -0.1818 -3.0755 36.6647 0.0000 0.0000 29.6645 0.0000 0.0000 18.2413 -0.9545 -2.9924 45.4976 0.0000 0.0000 45.6486 0.0000 0.0000 22.2319 -1.8591 -2.1803 38.2717 0.0000 0.0000 56.6897 0.0000 0.0000 0.0000 0.0000 0.0000 85.5472 -0.8340 0.9014 1.3558 9.5687 10.5921 149.4053 66.0788 140.7076 -45.3443 -8.5808 -5.6175 5.6334 0.0000 0.0000 7.3292 0.0000 0.0000 0.7625 1.3020 7.2564 10.4464 0.0000 0.0000 0.8519 0.0000 0.0000 -8.9143 0.3947 9.8328 9.9838 0.0000 0.0000 6.9891 0.0000 0.0000 -18.3673 -0.8684 7.3062 9.4042 0.0000 0.0000 6.4893 0.0000 0.0000 -26.5012 -2.2318 4.4964 8.8668 0.0000 0.0000 6.6979 0.0000 0.0000 0.0000 0.0000 0.0000 0.0000 0.0000 0.0000 0.0000 0.0000 0.0000 0.0000 0.0000 0.0000 0.0000 0.0000 0.0000 0.0000 0.0000 0.0000
0.0000 95.0000 0.0000 0.0000 0.0000 0.0000 0.0000 0.0000 0.0000 0.0000 0.0000 0.0000 0.0000 0.0000 0.0000 0.0000 0.0000 0.0000 0.0000 0.0000 0.0000 0.0000 0.0000 0.0000 -83.0711 9.7234 10.9693 -5.8286 5.7378 -5.9390 -172.5179 16.6107 175.7815 49.1697 -9.6716 4.7783 12.1563 0.0000 0.0000 2.6643 0.0000 0.0000 -3.5703 0.2262 -0.4324 7.3431 0.0000 0.0000 1.5400 0.0000 0.0000 10.8483 -0.1319 -3.3827 33.0325 0.0000 0.0000 30.2204 0.0000 0.0000 17.2775 -0.9214 -3.4388 42.1183 0.0000 0.0000 44.8149 0.0000 0.0000 21.7378 -1.8597 -2.4225 35.8561 0.0000 0.0000 53.4430 0.0000 0.0000 0.0000 0.0000 0.0000 85.6265 -1.0190 1.0999 1.2006 9.4444 10.4107 155.8088 60.8109 148.2354 -45.6742 -8.6102 -5.8114 5.1045 0.0000 0.0000 6.9828 0.0000 0.0000 -0.9109 1.1865 6.4711 9.5987 0.0000 0.0000 0.9695 0.0000 0.0000 -10.4490 0.3445 8.5384 10.2885 0.0000 0.0000 6.1091 0.0000 0.0000 -19.1873 -0.9153 5.3774 10.8264 0.0000 0.0000 7.5396 0.0000 0.0000 -26.8963 -2.1487 2.9681 10.5646 0.0000 0.0000 8.0300 0.0000 0.0000 0.0000 0.0000 0.0000 0.0000 0.0000 0.0000 0.0000 0.0000 0.0000 0.0000 0.0000 0.0000 0.0000 0.0000 0.0000 0.0000 0.0000 0.0000
0.0000 95.0000 0.0000 0.0000 0.0000 0.0000 0.0000 0.0000 0.0000 0.0000 0.0000 0.0000 0.0000 0.0000 0.0000 0.0000 0.0000 0.0000 0.0000 0.0000 0.0000 0.0000 0.0000 0.0000 -83.2287 9.5688 10.7655 -5.9186 5.6296 -5.8011 -173.0127 18.3367 177.8941 49.3466 -9.6099 5.2444 11.5995 0.0000 0.0000 4.0729 0.0000 0.0000 -2.4266 0.1666 -0.3544 8.3745 0.0000 0.0000 1.3537 0.0000 0.0000 11.7925 -0.1201 -3.6090 28.3158 0.0000 0.0000 22.6543 0.0000 0.0000 18.3635 -0.9426 -3.7341 37.7516 0.0000 0.0000 34.9985 0.0000 0.0000 22.4328 -1.9222 -2.6982 31.5791 0.0000 0.0000 43.1012 0.0000 0.0000 0.0000 0.0000 0.0000 85.5944 -1.0276 1.1098 1.2957 9.7201 10.7387 156.6208 59.9573 148.0818 -46.1128 -8.7001 -5.8735 5.3403 0.0000 0.0000 7.6358 0.0000 0.0000 -0.2756 1.1687 6.4187 9.8554 0.0000 0.0000 0.9505 0.0000 0.0000 -10.2988 0.4085 9.3028 10.9468 0.0000 0.0000 6.7679 0.0000 0.0000 -19.3205 -0.9001 5.9365 10.9578 0.0000 0.0000 7.7463 0.0000 0.0000 -26.6510 -2.1451 3.0807 10.1262 0.0000 0.0000 8.4461 0.0000 0.0000 0.0000 0.0000 0.0000 0.0000 0.0000 0.0000 0.0000 0.0000 0.0000 0.0000 0.0000 0.0000 0.0000 0.0000 0.0000 0.0000 0.0000 0.0000
0.0000 95.0000 0.0000 0.0000 0.0000 0.0000 0.0000 0.0000 0.0000 0.0000 0.0000 0.0000 0.0000 0.0000 0.0000 0.0000 0.0000 0.0000 0.0000 0.0000 0.0000 0.0000 0.0000 0.0000 -83.3071 9.3739 10.5321 -6.1073 5.3895 -5.5033 -173.1725 24.7866 177.9418 47.1999 -9.2915 4.4916 10.5237 0.0000 0.0000 5.1955 0.0000 0.0000 -3.5923 0.3397 -1.1863 9.9310 0.0000 0.0000 2.4817 0.0000 0.0000 9.7607 -0.0367 -4.3415 30.9815 0.0000 0.0000 25.0177 0.0000 0.0000 15.9175 -0.8881 -5.0545 42.4708 0.0000 0.0000 39.8211 0.0000 0.0000 20.2022 -2.0686 -4.7718 34.7189 0.0000 0.0000 52.9751 0.0000 0.0000 0.0000 0.0000 0.0000 85.6841 -1.1911 1.2844 1.2017 9.7815 10.7701 164.6321 40.4368 159.3073 -49.1295 -9.1749 -6.9832 7.0461 0.0000 0.0000 6.7679 0.0000 0.0000 -0.9664 0.2236 1.4052 6.4934 0.0000 0.0000 2.0911 0.0000 0.0000 -12.3574 -0.1692 3.2090 8.8325 0.0000 0.0000 3.3875 0.0000 0.0000 -20.4678 -1.1188 0.4527 6.4975 0.0000 0.0000 6.3693 0.0000 0.0000 -28.0351 -1.9941 -0.9369 6.8379 0.0000 0.0000 5.8109 0.0000 0.0000 0.0000 0.0000 0.0000 0.0000 0.0000 0.0000 0.0000 0.0000 0.0000 0.0000 0.0000 0.0000 0.0000 0.0000 0.0000 0.0000 0.0000 0.0000
0.0000 95.0000 0.0000 0.0000 0.0000 0.0000 0.0000 0.0000 0.0000 0.0000 0.0000 0.0000 0.0000 0.0000 0.0000 0.0000 0.0000 0.0000 0.0000 0.0000 0.0000 0.0000 0.0000 0.0000 -82.8901 9.4818 10.7310 -7.2341 5.5963 -5.6876 -173.5041 20.3309 178.3396 48.1282 -9.2412 5.6205 10.2366 0.0000 0.0000 3.3351 0.0000 0.0000 -3.6687 0.1764 -0.0707 10.1092 0.0000 0.0000 3.3803 0.0000 0.0000 10.2768 -0.1835 -2.7317 37.3392 0.0000 0.0000 25.4781 0.0000 0.0000 17.2859 -0.9315 -2.5677 43.9299 0.0000 0.0000 31.2199 0.0000 0.0000 22.0286 -1.8012 -1.7304 35.1862 0.0000 0.0000 45.6599 0.0000 0.0000 0.0000 0.0000 0.0000 85.2247 -0.8353 0.9080 2.9038 10.7013 12.2570 158.7722 20.3016 169.1736 -59.9335 -11.7251 -7.5771 13.5170 0.0000 0.0000 0.8694 0.0000 0.0000 -0.2449 -0.7084 -3.7818 5.6080 0.0000 0.0000 0.9977 0.0000 0.0000 -12.4038 -0.7552 -2.1693 8.2119 0.0000 0.0000 2.6046 0.0000 0.0000 -16.0228 -0.8923 -4.1566 8.0865 0.0000 0.0000 6.4814 0.0000 0.0000 -22.7236 -1.2530 -4.1590 9.4580 0.0000 0.0000 5.0789 0.0000 0.0000 0.0000 0.0000 0.0000 0.0000 0.0000 0.0000 0.0000 0.0000 0.0000 0.0000 0.0000 0.0000 0.0000 0.0000 0.0000 0.0000 0.0000 0.0000
